# xmcd
#
# Track frame offsets:
#	150
#	14045
#	28095
#	46515
#	58113
#	77133
#	89538
#	104413
#	118311
#	131071
#	144109
#	158137
#	169307
#	181767
#	194752
#	211197
#	225570
#	238558
#	255461
#	266379
#	277664
#	292592
#	308482
#
# Disc length: 4293 seconds
#
# Revision: 1
# Processed by: cddbd v1.5.2PL0 Copyright (c) Steve Scherf et al.
# Submitted via: audiograbber 1.83.01
#
DISCID=3610c317
DTITLE=Various Artist - Halland's Country Hits Volume 1
DYEAR=1900
DGENRE=
TTITLE0=Vince Gill - Oklahoma Swing
TTITLE1=Vince Gill - One More Last Chance
TTITLE2=Vince Gill - Pocket Full Of Gold
TTITLE3=Vince Gill - Take Your Memory With You
TTITLE4=Vince Gill - When I Call Your Name
TTITLE5=Lee Greenwood With Suzy Bogguss - Hopelessley Yours
TTITLE6=Lee Greenwood - Mornin' Ride
TTITLE7=Ricky Lynn Gregg - If I Had A Cheatin' Heart
TTITLE8=Clinton Gregory - (If It Weren't For...) I'd Go Crazy
TTITLE9=Highway 101 - Baby, I'm Missing You
TTITLE10=Alan Jackson - Chasin' That Neon Rainbow
TTITLE11=Alan Jackson - Chattahoochee
TTITLE12=Alan Jackson - Dallas
TTITLE13=Alan Jackson - Don't Rock The Jukebox
TTITLE14=Alan Jackson - Here In The Real World
TTITLE15=Alan Jackson - I'd Love You All Over Again
TTITLE16=Alan Jackson - Love's Got A Hold On You
TTITLE17=Alan Jackson - Midnight In Montgomery
TTITLE18=Alan Jackson - She's Got The Rhythm (And I Got...)
TTITLE19=Alan Jackson - Short Sweet Ride
TTITLE20=Alan Jackson - Someday
TTITLE21=Alan Jackson - Tonight I Climbed The Wall
TTITLE22=Alan Jackson - Wanted
EXTD=
EXTT0=
EXTT1=
EXTT2=
EXTT3=
EXTT4=
EXTT5=
EXTT6=
EXTT7=
EXTT8=
EXTT9=
EXTT10=
EXTT11=
EXTT12=
EXTT13=
EXTT14=
EXTT15=
EXTT16=
EXTT17=
EXTT18=
EXTT19=
EXTT20=
EXTT21=
EXTT22=
PLAYORDER=
